<svg width="46" height="38" viewBox="0 0 46 38" fill="none" xmlns="http://www.w3.org/2000/svg">
<g id="Frame 1948765068">
<path id="Vector" d="M37.754 0.868408H35.1526V1.49456H37.754V0.868408Z" fill="#1F2226"/>
<path id="Vector_2" d="M31.0264 34.5027H28.4249V35.1289H31.0264V34.5027Z" fill="#1F2226"/>
<path id="Vector_3" d="M37.754 34.5027H35.1526V35.1289H37.754V34.5027Z" fill="#1F2226"/>
<path id="Vector_4" d="M10.8471 34.5027H8.24561V35.1289H10.8471V34.5027Z" fill="#1F2226"/>
<path id="Vector_5" d="M17.5736 34.5027H14.9722V35.1289H17.5736V34.5027Z" fill="#1F2226"/>
<path id="Vector_6" d="M24.3006 34.5027H21.6992V35.1289H24.3006V34.5027Z" fill="#1F2226"/>
<path id="Vector_7" d="M10.8471 0.868408H8.24561V1.49456H10.8471V0.868408Z" fill="#1F2226"/>
<path id="Vector_8" d="M31.0264 0.868408H28.4249V1.49456H31.0264V0.868408Z" fill="#1F2226"/>
<path id="Vector_9" d="M24.3006 0.868408H21.6992V1.49456H24.3006V0.868408Z" fill="#1F2226"/>
<path id="Vector_10" d="M17.5736 0.868408H14.9722V1.49456H17.5736V0.868408Z" fill="#1F2226"/>
<path id="Vector_11" d="M8.24592 35.5249H4.12143C4.08026 35.5251 4.03947 35.5172 4.00139 35.5016C3.96332 35.4858 3.92872 35.4628 3.89961 35.4337C3.8705 35.4046 3.84744 35.37 3.83178 35.3319C3.81612 35.2938 3.80816 35.253 3.80835 35.2119V0.785249C3.80835 0.702213 3.84134 0.622582 3.90005 0.563868C3.95877 0.505154 4.0384 0.472168 4.12143 0.472168H8.24592C8.32898 0.472168 8.40858 0.505154 8.4673 0.563868C8.52601 0.622582 8.55898 0.702213 8.55898 0.785249V35.2119C8.55898 35.2949 8.52601 35.3745 8.4673 35.4333C8.40858 35.492 8.32898 35.5249 8.24592 35.5249ZM4.433 34.8988H7.93287V1.09832H4.433V34.8988Z" fill="#1F2226"/>
<path id="Vector_12" d="M14.9732 35.605H10.8472C10.7642 35.605 10.6846 35.5721 10.6259 35.5134C10.5671 35.4547 10.5342 35.375 10.5342 35.292V0.863856C10.5342 0.780826 10.5671 0.701195 10.6259 0.642481C10.6846 0.583767 10.7642 0.550781 10.8472 0.550781H14.9732C15.0563 0.550781 15.1359 0.583767 15.1946 0.642481C15.2533 0.701195 15.2863 0.780826 15.2863 0.863856V35.292C15.2863 35.375 15.2533 35.4547 15.1946 35.5134C15.1359 35.5721 15.0563 35.605 14.9732 35.605ZM11.1618 34.9789H14.6587V1.17694H11.1604L11.1618 34.9789Z" fill="#1F2226"/>
<path id="Vector_13" d="M21.6994 35.605H17.5749C17.4918 35.605 17.4122 35.5721 17.3535 35.5134C17.2948 35.4547 17.2618 35.375 17.2618 35.292V0.863856C17.2618 0.780826 17.2948 0.701195 17.3535 0.642481C17.4122 0.583767 17.4918 0.550781 17.5749 0.550781H21.6994C21.7824 0.550781 21.862 0.583767 21.9207 0.642481C21.9795 0.701195 22.0124 0.780826 22.0124 0.863856V35.292C22.0124 35.375 21.9795 35.4547 21.9207 35.5134C21.862 35.5721 21.7824 35.605 21.6994 35.605ZM17.888 34.9789H21.3863V1.17694H17.888V34.9789Z" fill="#1F2226"/>
<g id="Vector_14">
<mask id="path-14-inside-1_220_746" fill="white">
<path d="M28.4252 35.605H24.3007C24.2177 35.605 24.1381 35.5721 24.0794 35.5134C24.0206 35.4547 23.9877 35.375 23.9877 35.292V0.863856C23.9877 0.780826 24.0206 0.701195 24.0794 0.642481C24.1381 0.583767 24.2177 0.550781 24.3007 0.550781H28.4252C28.508 0.551177 28.5872 0.584342 28.6456 0.643011C28.704 0.70168 28.7368 0.781088 28.7368 0.863856V35.292C28.7368 35.3748 28.704 35.4541 28.6456 35.5129C28.5872 35.5715 28.508 35.6047 28.4252 35.605ZM24.6138 34.9789H28.1121V1.17694H24.6138V34.9789Z"/>
</mask>
<path d="M28.4252 35.605H24.3007C24.2177 35.605 24.1381 35.5721 24.0794 35.5134C24.0206 35.4547 23.9877 35.375 23.9877 35.292V0.863856C23.9877 0.780826 24.0206 0.701195 24.0794 0.642481C24.1381 0.583767 24.2177 0.550781 24.3007 0.550781H28.4252C28.508 0.551177 28.5872 0.584342 28.6456 0.643011C28.704 0.70168 28.7368 0.781088 28.7368 0.863856V35.292C28.7368 35.3748 28.704 35.4541 28.6456 35.5129C28.5872 35.5715 28.508 35.6047 28.4252 35.605ZM24.6138 34.9789H28.1121V1.17694H24.6138V34.9789Z" fill="#1F2226"/>
<path d="M28.4252 35.605V37.6051L28.4345 37.605L28.4252 35.605ZM28.4252 0.550781L28.4348 -1.44922H28.4252V0.550781ZM28.6456 35.5129L30.0629 36.924L30.0637 36.9232L28.6456 35.5129ZM24.6138 34.9789H22.6138V36.9789H24.6138V34.9789ZM28.1121 34.9789V36.9789H30.1121V34.9789H28.1121ZM28.1121 1.17694H30.1121V-0.823063H28.1121V1.17694ZM24.6138 1.17694V-0.823063H22.6138V1.17694H24.6138ZM28.4252 33.605H24.3007V37.605H28.4252V33.605ZM24.3007 33.605C24.7478 33.605 25.1769 33.7825 25.4936 34.0992L22.6651 36.9276C23.0992 37.3616 23.6877 37.605 24.3007 37.605V33.605ZM25.4936 34.0992C25.81 34.4156 25.9877 34.8448 25.9877 35.292H21.9877C21.9877 35.9053 22.2312 36.4937 22.6651 36.9276L25.4936 34.0992ZM25.9877 35.292V0.863856H21.9877V35.292H25.9877ZM25.9877 0.863856C25.9877 1.311 25.8101 1.74015 25.4936 2.05669L22.6651 -0.771733C22.2312 -0.337761 21.9877 0.250654 21.9877 0.863856H25.9877ZM25.4936 2.05669C25.1771 2.37312 24.7481 2.55078 24.3007 2.55078V-1.44922C23.6874 -1.44922 23.099 -1.20559 22.6651 -0.771733L25.4936 2.05669ZM24.3007 2.55078H28.4252V-1.44922H24.3007V2.55078ZM28.4156 2.55076C27.9695 2.54862 27.5425 2.36984 27.2281 2.0539L30.0631 -0.76788C29.6319 -1.20116 29.0465 -1.44627 28.4348 -1.4492L28.4156 2.55076ZM27.2281 2.0539C26.9134 1.73771 26.7368 1.3098 26.7368 0.863856H30.7368C30.7368 0.252375 30.4947 -0.334345 30.0631 -0.76788L27.2281 2.0539ZM26.7368 0.863856V35.292H30.7368V0.863856H26.7368ZM26.7368 35.292C26.7368 34.8457 26.9136 34.4181 27.2276 34.1025L30.0637 36.9232C30.4944 36.4902 30.7368 35.9039 30.7368 35.292H26.7368ZM27.2283 34.1017C27.5428 33.7859 27.9697 33.6071 28.4159 33.6051L28.4345 37.605C29.0463 37.6022 29.6317 37.3571 30.0629 36.924L27.2283 34.1017ZM24.6138 36.9789H28.1121V32.9789H24.6138V36.9789ZM30.1121 34.9789V1.17694H26.1121V34.9789H30.1121ZM28.1121 -0.823063H24.6138V3.17694H28.1121V-0.823063ZM22.6138 1.17694V34.9789H26.6138V1.17694H22.6138Z" fill="#1F2226" mask="url(#path-14-inside-1_220_746)"/>
</g>
<path id="Vector_15" d="M35.1529 35.605H31.0284C30.9453 35.605 30.8657 35.5721 30.807 35.5134C30.7483 35.4547 30.7153 35.375 30.7153 35.292V0.863856C30.7153 0.780826 30.7483 0.701195 30.807 0.642481C30.8657 0.583767 30.9453 0.550781 31.0284 0.550781H35.1529C35.2359 0.550781 35.3155 0.583767 35.3742 0.642481C35.433 0.701195 35.466 0.780826 35.466 0.863856V35.292C35.466 35.375 35.433 35.4547 35.3742 35.5134C35.3155 35.5721 35.2359 35.605 35.1529 35.605ZM31.3414 34.9789H34.8398V1.17694H31.3414V34.9789Z" fill="#1F2226"/>
<path id="Vector_16" d="M41.8802 35.6051H37.7543C37.6712 35.6051 37.5916 35.5721 37.5328 35.5134C37.4741 35.4547 37.4412 35.375 37.4412 35.2921V0.863895C37.4412 0.780859 37.4741 0.701228 37.5328 0.642514C37.5916 0.5838 37.6712 0.550814 37.7543 0.550814H41.8802C41.9218 0.550213 41.963 0.557867 42.0014 0.573329C42.0399 0.588796 42.075 0.611758 42.1045 0.640891C42.1341 0.670024 42.1576 0.704742 42.1736 0.743024C42.1896 0.781306 42.1979 0.822393 42.1979 0.863895V35.2921C42.1979 35.3335 42.1896 35.3746 42.1736 35.4129C42.1576 35.4512 42.1341 35.4859 42.1045 35.515C42.075 35.5442 42.0399 35.5671 42.0014 35.5826C41.963 35.5981 41.9218 35.6057 41.8802 35.6051ZM38.0673 34.9789H41.5672V1.17697H38.0673V34.9789Z" fill="#1F2226"/>
<path id="Vector_17" d="M5.39072 37.9812H2.80441C2.72319 37.9812 2.64511 37.9497 2.58669 37.8933C2.52827 37.8368 2.49408 37.7599 2.49133 37.6787V5.31207C2.49174 5.22927 2.52489 5.15005 2.58357 5.09166C2.64224 5.03326 2.72164 5.00049 2.80441 5.00049H4.08396V5.61452H3.1175V37.358H5.08369V35.3057H5.70985V37.6787C5.70708 37.7609 5.67205 37.8388 5.61233 37.8954C5.55261 37.952 5.473 37.9828 5.39072 37.9812Z" fill="#1F2226"/>
<path id="Vector_18" d="M2.78899 12.2831H0.313094C0.271724 12.2831 0.230764 12.2749 0.192581 12.259C0.154398 12.243 0.119749 12.2197 0.0906373 12.1903C0.0615251 12.1609 0.0385272 12.1261 0.0229725 12.0877C0.00741788 12.0494 -0.000385095 12.0084 1.46146e-05 11.967V9.59095C1.46146e-05 9.5079 0.0329996 9.42823 0.0917132 9.36951C0.150427 9.3108 0.23006 9.27783 0.313094 9.27783H2.78899V9.90401H0.626173V11.6645H2.78899V12.2831Z" fill="#1F2226"/>
<path id="Vector_19" d="M2.78898 29.1002H0.313079C0.230045 29.1002 0.150412 29.0672 0.0916991 29.0085C0.0329851 28.9498 0 28.8702 0 28.7871V26.408C0 26.325 0.0329851 26.2454 0.0916991 26.1867C0.150412 26.1279 0.230045 26.095 0.313079 26.095H2.78898V26.7211H0.626158V28.4741H2.78898V29.1002Z" fill="#1F2226"/>
<path id="Vector_20" d="M43.1962 37.9812H40.6099C40.5268 37.9812 40.4472 37.9481 40.3885 37.8894C40.3298 37.8307 40.2968 37.7511 40.2968 37.6681V35.3056H40.9229V37.358H42.8891V5.61449H41.9242V4.99438H43.2022C43.285 4.99598 43.3637 5.03029 43.4213 5.08983C43.4789 5.14938 43.5105 5.22924 43.5093 5.31204V37.6787C43.5065 37.7599 43.4723 37.8368 43.4139 37.8933C43.3555 37.9497 43.2774 37.9812 43.1962 37.9812Z" fill="#1F2226"/>
<path id="Vector_21" d="M45.687 12.2831H43.1899V11.6645H45.3739V9.90401H43.1899V9.27783H45.687C45.77 9.27783 45.8496 9.3108 45.9083 9.36951C45.9671 9.42823 46.0001 9.5079 46.0001 9.59095V11.967C46.0005 12.0084 45.9927 12.0494 45.9771 12.0877C45.9616 12.1261 45.9386 12.1609 45.9094 12.1903C45.8804 12.2197 45.8457 12.243 45.8075 12.259C45.7693 12.2749 45.7284 12.2831 45.687 12.2831Z" fill="#1F2226"/>
<path id="Vector_22" d="M45.687 29.1002H43.1899V28.4741H45.3739V26.7211H43.1899V26.095H45.687C45.77 26.095 45.8496 26.1279 45.9083 26.1867C45.9671 26.2454 46.0001 26.325 46.0001 26.408V28.7871C46.0001 28.8702 45.9671 28.9498 45.9083 29.0085C45.8496 29.0672 45.77 29.1002 45.687 29.1002Z" fill="#1F2226"/>
</g>
</svg>
